<svg width="527" height="304" viewBox="0 0 527 304" fill="none" xmlns="http://www.w3.org/2000/svg">
<path d="M0.5 263.5C0.5 118.249 118.249 0.5 263.5 0.5C408.751 0.5 526.5 118.249 526.5 263.5V303.5H0.5V263.5Z" fill="#FF9B3D" stroke="#111010"/>
<path d="M156.982 142.48C154.236 142.48 151.862 141.88 149.862 140.68C147.889 139.453 146.356 137.76 145.262 135.6C144.169 133.413 143.622 130.88 143.622 128C143.622 125.147 144.169 122.64 145.262 120.48C146.356 118.293 147.889 116.587 149.862 115.36C151.862 114.133 154.236 113.52 156.982 113.52C160.182 113.52 162.782 114.293 164.782 115.84C166.809 117.36 168.102 119.493 168.662 122.24H164.942C164.516 120.507 163.636 119.12 162.302 118.08C160.996 117.013 159.222 116.48 156.982 116.48C154.982 116.48 153.236 116.947 151.742 117.88C150.249 118.787 149.089 120.107 148.262 121.84C147.462 123.547 147.062 125.6 147.062 128C147.062 130.4 147.462 132.467 148.262 134.2C149.089 135.907 150.249 137.227 151.742 138.16C153.236 139.067 154.982 139.52 156.982 139.52C159.222 139.52 160.996 139.013 162.302 138C163.636 136.96 164.516 135.587 164.942 133.88H168.662C168.102 136.573 166.809 138.68 164.782 140.2C162.782 141.72 160.182 142.48 156.982 142.48ZM186.211 142.48C183.465 142.48 181.051 141.88 178.971 140.68C176.918 139.453 175.305 137.747 174.131 135.56C172.985 133.373 172.411 130.853 172.411 128C172.411 125.147 172.985 122.64 174.131 120.48C175.305 118.293 176.918 116.587 178.971 115.36C181.051 114.133 183.465 113.52 186.211 113.52C188.985 113.52 191.398 114.133 193.451 115.36C195.531 116.587 197.145 118.293 198.291 120.48C199.438 122.64 200.011 125.147 200.011 128C200.011 130.853 199.438 133.373 198.291 135.56C197.145 137.747 195.531 139.453 193.451 140.68C191.398 141.88 188.985 142.48 186.211 142.48ZM186.211 139.52C188.265 139.52 190.065 139.067 191.611 138.16C193.185 137.227 194.398 135.907 195.251 134.2C196.131 132.467 196.571 130.4 196.571 128C196.571 125.6 196.131 123.547 195.251 121.84C194.398 120.133 193.185 118.827 191.611 117.92C190.065 116.987 188.265 116.52 186.211 116.52C184.158 116.52 182.345 116.987 180.771 117.92C179.225 118.827 178.011 120.133 177.131 121.84C176.278 123.547 175.851 125.6 175.851 128C175.851 130.4 176.278 132.467 177.131 134.2C178.011 135.907 179.225 137.227 180.771 138.16C182.345 139.067 184.158 139.52 186.211 139.52ZM204.858 142V114H208.218V139.32H221.258V142H204.858ZM225.874 142V114H229.234V139.32H242.274V142H225.874ZM246.89 142V114H264.21V116.76H250.25V126.52H263.01V129.24H250.25V139.24H264.21V142H246.89ZM281.748 142.48C279.001 142.48 276.628 141.88 274.628 140.68C272.654 139.453 271.121 137.76 270.028 135.6C268.934 133.413 268.388 130.88 268.388 128C268.388 125.147 268.934 122.64 270.028 120.48C271.121 118.293 272.654 116.587 274.628 115.36C276.628 114.133 279.001 113.52 281.748 113.52C284.948 113.52 287.548 114.293 289.548 115.84C291.574 117.36 292.868 119.493 293.428 122.24H289.708C289.281 120.507 288.401 119.12 287.068 118.08C285.761 117.013 283.988 116.48 281.748 116.48C279.748 116.48 278.001 116.947 276.508 117.88C275.014 118.787 273.854 120.107 273.028 121.84C272.228 123.547 271.828 125.6 271.828 128C271.828 130.4 272.228 132.467 273.028 134.2C273.854 135.907 275.014 137.227 276.508 138.16C278.001 139.067 279.748 139.52 281.748 139.52C283.988 139.52 285.761 139.013 287.068 138C288.401 136.96 289.281 135.587 289.708 133.88H293.428C292.868 136.573 291.574 138.68 289.548 140.2C287.548 141.72 284.948 142.48 281.748 142.48ZM304.153 142V116.76H295.793V114H315.873V116.76H307.513V142H304.153ZM319.976 142V114H323.336V142H319.976ZM341.993 142.48C339.246 142.48 336.833 141.88 334.753 140.68C332.699 139.453 331.086 137.747 329.913 135.56C328.766 133.373 328.193 130.853 328.193 128C328.193 125.147 328.766 122.64 329.913 120.48C331.086 118.293 332.699 116.587 334.753 115.36C336.833 114.133 339.246 113.52 341.993 113.52C344.766 113.52 347.179 114.133 349.233 115.36C351.313 116.587 352.926 118.293 354.073 120.48C355.219 122.64 355.793 125.147 355.793 128C355.793 130.853 355.219 133.373 354.073 135.56C352.926 137.747 351.313 139.453 349.233 140.68C347.179 141.88 344.766 142.48 341.993 142.48ZM341.993 139.52C344.046 139.52 345.846 139.067 347.393 138.16C348.966 137.227 350.179 135.907 351.033 134.2C351.913 132.467 352.353 130.4 352.353 128C352.353 125.6 351.913 123.547 351.033 121.84C350.179 120.133 348.966 118.827 347.393 117.92C345.846 116.987 344.046 116.52 341.993 116.52C339.939 116.52 338.126 116.987 336.553 117.92C335.006 118.827 333.793 120.133 332.913 121.84C332.059 123.547 331.633 125.6 331.633 128C331.633 130.4 332.059 132.467 332.913 134.2C333.793 135.907 335.006 137.227 336.553 138.16C338.126 139.067 339.939 139.52 341.993 139.52ZM360.64 142V114H364L378.92 136.44V114H382.28V142H378.92L364 119.56V142H360.64Z" fill="#111010"/>
<path d="M160.22 226L170.54 198H174.1L184.38 226H180.82L178.26 218.8H166.34L163.74 226H160.22ZM167.34 216.08H177.26L172.3 202.24L167.34 216.08ZM188.542 226V198H197.742C199.929 198 201.729 198.36 203.142 199.08C204.555 199.8 205.595 200.773 206.262 202C206.955 203.227 207.302 204.613 207.302 206.16C207.302 207.68 206.969 209.053 206.302 210.28C205.635 211.507 204.595 212.493 203.182 213.24C201.769 213.96 199.955 214.32 197.742 214.32H191.902V226H188.542ZM191.902 211.48H197.662C199.902 211.48 201.489 211.013 202.422 210.08C203.382 209.12 203.862 207.813 203.862 206.16C203.862 204.48 203.382 203.173 202.422 202.24C201.489 201.28 199.902 200.8 197.662 200.8H191.902V211.48ZM211.706 226V198H220.746C222.933 198 224.719 198.36 226.106 199.08C227.493 199.8 228.519 200.787 229.186 202.04C229.853 203.293 230.186 204.68 230.186 206.2C230.186 207.96 229.706 209.547 228.746 210.96C227.813 212.373 226.346 213.373 224.346 213.96L230.466 226H226.506L220.826 214.44H220.586H215.066V226H211.706ZM215.066 211.8H220.506C222.666 211.8 224.239 211.28 225.226 210.24C226.213 209.2 226.706 207.867 226.706 206.24C226.706 204.587 226.213 203.28 225.226 202.32C224.266 201.333 222.679 200.84 220.466 200.84H215.066V211.8ZM235.417 226V198H238.777V226H235.417ZM244.714 226V198H248.074V223.32H261.114V226H244.714ZM275.875 226V223.64C277.769 222.147 279.555 220.64 281.235 219.12C282.942 217.573 284.449 216.053 285.755 214.56C287.089 213.067 288.129 211.6 288.875 210.16C289.649 208.72 290.035 207.333 290.035 206C290.035 205.013 289.862 204.093 289.515 203.24C289.195 202.387 288.662 201.707 287.915 201.2C287.169 200.667 286.155 200.4 284.875 200.4C283.649 200.4 282.622 200.68 281.795 201.24C280.969 201.773 280.342 202.493 279.915 203.4C279.515 204.307 279.315 205.28 279.315 206.32H276.075C276.075 204.48 276.462 202.907 277.235 201.6C278.009 200.267 279.062 199.253 280.395 198.56C281.729 197.867 283.235 197.52 284.915 197.52C287.395 197.52 289.422 198.227 290.995 199.64C292.595 201.027 293.395 203.107 293.395 205.88C293.395 207.533 292.982 209.173 292.155 210.8C291.329 212.4 290.275 213.96 288.995 215.48C287.715 216.973 286.342 218.373 284.875 219.68C283.435 220.987 282.089 222.16 280.835 223.2H294.355V226H275.875ZM309.735 226.48C307.255 226.48 305.109 225.88 303.295 224.68C301.509 223.453 300.135 221.76 299.175 219.6C298.215 217.413 297.735 214.88 297.735 212C297.735 209.12 298.215 206.6 299.175 204.44C300.135 202.253 301.509 200.56 303.295 199.36C305.109 198.133 307.255 197.52 309.735 197.52C312.215 197.52 314.349 198.133 316.135 199.36C317.922 200.56 319.295 202.253 320.255 204.44C321.215 206.6 321.695 209.12 321.695 212C321.695 214.88 321.215 217.413 320.255 219.6C319.295 221.76 317.922 223.453 316.135 224.68C314.349 225.88 312.215 226.48 309.735 226.48ZM309.735 223.52C311.362 223.52 312.815 223.067 314.095 222.16C315.402 221.227 316.415 219.907 317.135 218.2C317.882 216.467 318.255 214.4 318.255 212C318.255 209.6 317.882 207.547 317.135 205.84C316.415 204.133 315.402 202.827 314.095 201.92C312.815 200.987 311.362 200.52 309.735 200.52C308.082 200.52 306.615 200.987 305.335 201.92C304.055 202.827 303.042 204.133 302.295 205.84C301.549 207.547 301.175 209.6 301.175 212C301.175 214.4 301.549 216.467 302.295 218.2C303.042 219.907 304.055 221.227 305.335 222.16C306.615 223.067 308.082 223.52 309.735 223.52ZM325.719 226V223.64C327.613 222.147 329.399 220.64 331.079 219.12C332.786 217.573 334.293 216.053 335.599 214.56C336.933 213.067 337.973 211.6 338.719 210.16C339.493 208.72 339.879 207.333 339.879 206C339.879 205.013 339.706 204.093 339.359 203.24C339.039 202.387 338.506 201.707 337.759 201.2C337.013 200.667 335.999 200.4 334.719 200.4C333.493 200.4 332.466 200.68 331.639 201.24C330.813 201.773 330.186 202.493 329.759 203.4C329.359 204.307 329.159 205.28 329.159 206.32H325.919C325.919 204.48 326.306 202.907 327.079 201.6C327.853 200.267 328.906 199.253 330.239 198.56C331.573 197.867 333.079 197.52 334.759 197.52C337.239 197.52 339.266 198.227 340.839 199.64C342.439 201.027 343.239 203.107 343.239 205.88C343.239 207.533 342.826 209.173 341.999 210.8C341.173 212.4 340.119 213.96 338.839 215.48C337.559 216.973 336.186 218.373 334.719 219.68C333.279 220.987 331.933 222.16 330.679 223.2H344.199V226H325.719ZM348.61 226V223.64C350.503 222.147 352.29 220.64 353.97 219.12C355.677 217.573 357.183 216.053 358.49 214.56C359.823 213.067 360.863 211.6 361.61 210.16C362.383 208.72 362.77 207.333 362.77 206C362.77 205.013 362.597 204.093 362.25 203.24C361.93 202.387 361.397 201.707 360.65 201.2C359.903 200.667 358.89 200.4 357.61 200.4C356.383 200.4 355.357 200.68 354.53 201.24C353.703 201.773 353.077 202.493 352.65 203.4C352.25 204.307 352.05 205.28 352.05 206.32H348.81C348.81 204.48 349.197 202.907 349.97 201.6C350.743 200.267 351.797 199.253 353.13 198.56C354.463 197.867 355.97 197.52 357.65 197.52C360.13 197.52 362.157 198.227 363.73 199.64C365.33 201.027 366.13 203.107 366.13 205.88C366.13 207.533 365.717 209.173 364.89 210.8C364.063 212.4 363.01 213.96 361.73 215.48C360.45 216.973 359.077 218.373 357.61 219.68C356.17 220.987 354.823 222.16 353.57 223.2H367.09V226H348.61Z" fill="#111010"/>
<path d="M222.046 98V70H225.406L240.326 92.44V70H243.686V98H240.326L225.406 75.56V98H222.046ZM249.624 98V70H266.944V72.76H252.984V82.52H265.744V85.24H252.984V95.24H266.944V98H249.624ZM277.962 98.04L270.282 70H273.882L279.922 94.04L286.802 70H290.522L297.202 94.04L303.322 70H306.922L299.082 98H295.242L288.562 74.88L281.722 98L277.962 98.04Z" fill="#111010"/>
</svg>
