<svg width="168" height="57" viewBox="0 0 168 57" fill="none" xmlns="http://www.w3.org/2000/svg">
<g clip-path="url(#clip0_1_413)">
<path d="M96 19.82C95.0967 20.3014 94.1415 20.6211 93.1636 20.7694C94.1938 20.0231 94.9643 18.8409 95.3291 17.4467C94.3646 18.1459 93.3094 18.6384 92.2091 18.9027C91.5344 18.0231 90.6588 17.4118 89.6962 17.1481C88.7336 16.8843 87.7284 16.9804 86.8109 17.4237C85.8936 17.867 85.1064 18.6372 84.5517 19.6342C83.9969 20.6312 83.7002 21.809 83.7 23.0147C83.6945 23.4756 83.7311 23.9358 83.8091 24.3867C81.8522 24.2685 79.9378 23.647 78.1909 22.5628C76.444 21.4786 74.9039 19.9561 73.6713 18.0947C73.0379 19.4177 72.8418 20.9862 73.1228 22.48C73.4038 23.9737 74.1408 25.28 75.1833 26.132C74.4044 26.1068 73.6418 25.853 72.96 25.392V25.4574C72.9613 26.8462 73.3541 28.192 74.0721 29.2683C74.7902 30.3446 75.7898 31.0857 76.9025 31.3668C76.4815 31.5026 76.0475 31.5694 75.612 31.5654C75.2993 31.5722 74.987 31.5377 74.6804 31.4628C74.9983 32.6561 75.6111 33.6998 76.4343 34.4501C77.2576 35.2004 78.2509 35.6202 79.2775 35.6521C77.5359 37.3168 75.388 38.22 73.1771 38.2174C72.7837 38.2201 72.3905 38.1921 72 38.1334C74.2499 39.9052 76.8715 40.8425 79.548 40.8321C81.3904 40.8478 83.2169 40.416 84.9216 39.5617C86.6263 38.7073 88.175 37.4476 89.4779 35.8554C90.7809 34.2633 91.812 32.3708 92.5114 30.2874C93.2108 28.2042 93.5644 25.9718 93.552 23.72C93.552 23.4534 93.5444 23.1974 93.5335 22.9427C94.5041 22.0937 95.34 21.0355 96 19.82Z" fill="#111010"/>
</g>
<g clip-path="url(#clip1_1_413)">
<path fill-rule="evenodd" clip-rule="evenodd" d="M135.5 17H144.5C146.489 17.0003 148.397 17.7906 149.803 19.197C151.209 20.6035 152 22.511 152 24.5V33.5C152 35.4891 151.209 37.3965 149.803 38.803C148.397 40.2094 146.489 40.9997 144.5 41H135.5C133.511 40.9997 131.603 40.2094 130.197 38.803C128.791 37.3965 128 35.4891 128 33.5V24.5C128 22.511 128.791 20.6035 130.197 19.197C131.603 17.7906 133.511 17.0003 135.5 17ZM144.5 38.7505C145.892 38.7491 147.226 38.1956 148.211 37.2115C149.195 36.2274 149.749 34.893 149.751 33.5011V24.5C149.749 23.1083 149.195 21.7741 148.211 20.79C147.227 19.8059 145.893 19.2523 144.501 19.2505H135.5C134.108 19.2523 132.774 19.8059 131.79 20.79C130.806 21.7741 130.252 23.1083 130.251 24.5V33.5C130.252 34.8921 130.806 36.2267 131.79 37.2111C132.774 38.1955 134.109 38.7491 135.501 38.7505H144.5Z" fill="#111010"/>
<path fill-rule="evenodd" clip-rule="evenodd" d="M134 29C134 27.8133 134.352 26.6533 135.011 25.6666C135.67 24.6799 136.608 23.9109 137.704 23.4567C138.8 23.0026 140.007 22.8838 141.171 23.1153C142.334 23.3468 143.404 23.9183 144.243 24.7574C145.082 25.5965 145.653 26.6656 145.885 27.8295C146.116 28.9933 145.997 30.1998 145.543 31.2961C145.089 32.3925 144.32 33.3295 143.333 33.9888C142.347 34.6481 141.187 35 140 35C138.409 35 136.883 34.3678 135.757 33.2427C134.632 32.1174 134 30.5913 134 29ZM136.251 29C136.25 29.7419 136.47 30.4672 136.882 31.0841C137.294 31.7011 137.88 32.182 138.565 32.4659C139.251 32.7499 140.005 32.8243 140.733 32.6796C141.46 32.535 142.129 32.1777 142.653 31.6531C143.178 31.1286 143.535 30.4602 143.68 29.7325C143.824 29.0049 143.75 28.2507 143.466 27.5653C143.182 26.88 142.701 26.2942 142.084 25.8822C141.467 25.4701 140.742 25.2503 140 25.2505C139.006 25.252 138.053 25.6475 137.35 26.3503C136.647 27.0532 136.252 28.0061 136.251 29Z" fill="#111010"/>
<path d="M146.45 23.3488C146.608 23.3488 146.762 23.3019 146.894 23.214C147.025 23.1262 147.128 23.0013 147.188 22.8552C147.249 22.709 147.265 22.5483 147.234 22.3931C147.203 22.238 147.127 22.0956 147.015 21.9837C146.903 21.8719 146.761 21.7957 146.606 21.7649C146.451 21.734 146.29 21.7499 146.144 21.8104C145.998 21.8709 145.873 21.9734 145.785 22.1049C145.697 22.2364 145.65 22.391 145.65 22.5492C145.65 22.7612 145.734 22.9646 145.884 23.1146C146.034 23.2645 146.238 23.3488 146.45 23.3488Z" fill="#111010"/>
</g>
<g clip-path="url(#clip2_1_413)">
<path d="M35.4688 20.9602H39.8176V17.1682C37.7136 17.0525 35.5983 16.9964 33.4816 17.0002C27.2128 17.0002 22.9216 18.9718 22.9216 22.5958V25.9306H16V30.1629H22.9192V40.8141H31.4008V30.1641H38.0392L39.0928 25.9318H31.3984V23.0158C31.4008 21.7918 32.0584 20.9602 35.4688 20.9602Z" fill="#111010"/>
</g>
<defs>
<clipPath id="clip0_1_413">
<rect width="24" height="24" fill="white" transform="translate(72 17)"/>
</clipPath>
<clipPath id="clip1_1_413">
<rect width="24" height="24" fill="white" transform="translate(128 17)"/>
</clipPath>
<clipPath id="clip2_1_413">
<rect width="24" height="24" fill="white" transform="translate(16 17)"/>
</clipPath>
</defs>
</svg>
